<?xml version="1.0" encoding="UTF-8"?>
<svg xmlns="http://www.w3.org/2000/svg" xmlns:xlink="http://www.w3.org/1999/xlink" width="640pt" height="135pt" viewBox="0 0 640 135" version="1.1">
<g id="surface1">
<path style=" stroke:none;fill-rule:nonzero;fill:rgb(5.490196%,13.72549%,18.039216%);fill-opacity:1;" d="M 182.273438 77.734375 L 182.273438 28.59375 L 167.914062 28.59375 L 167.914062 77.734375 C 167.914062 89.914062 163.304688 93.695312 156.179688 93.695312 C 148.84375 93.695312 144.335938 89.808594 144.335938 77.734375 L 144.335938 28.59375 L 129.980469 28.59375 L 129.980469 77.734375 C 129.980469 97.472656 140.878906 107.554688 156.074219 107.554688 C 171.375 107.554688 182.273438 97.578125 182.273438 77.734375 "/>
<path style=" stroke:none;fill-rule:nonzero;fill:rgb(5.490196%,13.72549%,18.039216%);fill-opacity:1;" d="M 241.652344 82.667969 C 241.652344 72.167969 237.355469 65.34375 221.636719 59.464844 C 214.300781 56.734375 214.089844 56.628906 213.042969 56 C 210.214844 54.214844 208.746094 51.796875 208.746094 48.964844 C 208.746094 44.34375 211.996094 41.089844 216.710938 41.089844 C 221.53125 41.089844 224.464844 44.027344 224.882812 49.277344 L 239.765625 49.277344 C 239.03125 35.628906 229.285156 27.230469 216.816406 27.230469 C 204.34375 27.230469 194.285156 36.992188 194.285156 49.277344 C 194.285156 59.042969 200.046875 66.5 210.421875 70.382812 C 220.691406 74.269531 221.53125 74.582031 223.835938 76.367188 C 226.140625 78.152344 227.398438 81.09375 227.398438 84.242188 C 227.398438 89.808594 223.101562 93.695312 216.921875 93.695312 C 210.527344 93.695312 207.070312 90.542969 206.441406 84.035156 L 191.453125 84.035156 C 192.710938 98.734375 203.296875 107.554688 216.921875 107.554688 C 230.859375 107.554688 241.652344 96.738281 241.652344 82.667969 "/>
<path style=" stroke:none;fill-rule:nonzero;fill:rgb(5.490196%,13.72549%,18.039216%);fill-opacity:1;" d="M 301.859375 83.089844 C 301.859375 73.847656 298.507812 67.96875 288.65625 63.875 C 294.839844 60.617188 297.25 56.523438 297.25 49.277344 C 297.25 42.035156 294 35.945312 288.445312 32.375 C 283.835938 29.433594 279.015625 28.59375 267.488281 28.59375 L 251.558594 28.59375 L 251.558594 106.1875 L 272.203125 106.1875 C 292.113281 106.1875 301.859375 97.261719 301.859375 83.089844 M 287.398438 82.773438 C 287.398438 89.492188 283.101562 92.433594 273.042969 92.433594 L 265.914062 92.433594 L 265.914062 72.589844 L 272.726562 72.589844 C 282.683594 72.589844 287.398438 75.84375 287.398438 82.773438 M 282.890625 50.539062 C 282.890625 56.105469 279.222656 58.519531 270.527344 58.519531 L 265.914062 58.519531 L 265.914062 42.664062 L 271.785156 42.664062 C 279.222656 42.664062 282.890625 45.183594 282.890625 50.539062 "/>
<path style=" stroke:none;fill-rule:nonzero;fill:rgb(5.490196%,13.72549%,18.039216%);fill-opacity:1;" d="M 390.945312 68.492188 L 390.945312 66.605469 L 340.328125 66.605469 L 340.328125 80.042969 L 372.394531 80.042969 C 368.203125 88.652344 359.820312 93.695312 349.65625 93.695312 C 334.460938 93.695312 322.828125 82.25 322.828125 67.445312 C 322.828125 52.847656 333.515625 41.089844 348.816406 41.089844 C 357.828125 41.089844 365.269531 44.660156 370.089844 51.378906 L 386.960938 51.378906 C 381.933594 37.414062 366.003906 27.230469 349.132812 27.230469 C 326.496094 27.230469 308.367188 44.972656 308.367188 67.234375 C 308.367188 89.914062 326.703125 107.554688 350.492188 107.554688 C 373.339844 107.554688 390.945312 89.597656 390.945312 68.492188 "/>
<path style=" stroke:none;fill-rule:nonzero;fill:rgb(5.490196%,13.72549%,18.039216%);fill-opacity:1;" d="M 450.554688 106.1875 L 450.554688 48.019531 L 436.617188 48.019531 L 436.617188 75.421875 C 436.617188 83.195312 435.988281 86.761719 434.417969 89.386719 C 432.320312 92.75 428.550781 94.742188 423.832031 94.742188 C 417.125 94.742188 412.832031 91.910156 412.832031 76.472656 L 412.832031 48.019531 L 398.890625 48.019531 L 398.890625 79.203125 C 398.890625 99.679688 407.484375 107.554688 421.003906 107.554688 C 428.027344 107.554688 432.425781 105.769531 437.667969 100.625 L 437.667969 106.1875 L 450.554688 106.1875 "/>
<path style=" stroke:none;fill-rule:nonzero;fill:rgb(5.490196%,13.72549%,18.039216%);fill-opacity:1;" d="M 520.519531 106.1875 L 520.519531 48.019531 L 507.734375 48.019531 L 507.734375 55.789062 C 502.914062 49.382812 497.148438 46.652344 488.765625 46.652344 C 471.578125 46.652344 459.214844 59.570312 459.214844 77.3125 C 459.214844 94.847656 471.472656 107.554688 488.453125 107.554688 C 496.625 107.554688 502.179688 104.929688 507.734375 98.628906 L 507.734375 106.1875 L 520.519531 106.1875 M 507.316406 77.523438 C 507.316406 87.183594 501.027344 94.742188 490.441406 94.742188 C 480.277344 94.742188 473.257812 87.8125 473.257812 77.628906 C 473.257812 67.023438 480.277344 59.464844 490.234375 59.464844 C 500.1875 59.464844 507.316406 66.917969 507.316406 77.523438 "/>
<path style=" stroke:none;fill-rule:nonzero;fill:rgb(5.490196%,13.72549%,18.039216%);fill-opacity:1;" d="M 557.316406 60.09375 L 557.316406 46.652344 L 556.269531 46.652344 C 550.296875 46.652344 547.363281 48.332031 543.695312 53.6875 L 543.695312 48.019531 L 530.910156 48.019531 L 530.910156 106.1875 L 544.847656 106.1875 L 544.847656 73.847656 C 544.847656 64.820312 548.933594 60.304688 557.316406 60.09375 "/>
<path style=" stroke:none;fill-rule:nonzero;fill:rgb(5.490196%,13.72549%,18.039216%);fill-opacity:1;" d="M 621.421875 106.1875 L 621.421875 28.59375 L 607.484375 28.59375 L 607.484375 53.164062 C 603.394531 48.648438 596.6875 45.917969 589.351562 45.917969 C 573.109375 45.917969 560.324219 59.570312 560.324219 77 C 560.324219 94.21875 573.003906 107.554688 589.457031 107.554688 C 597.316406 107.554688 603.082031 104.929688 608.636719 98.628906 L 608.636719 106.1875 L 621.421875 106.1875 M 608.53125 76.789062 C 608.53125 86.867188 601.089844 94.742188 591.660156 94.742188 C 581.914062 94.742188 574.367188 86.660156 574.367188 76.367188 C 574.367188 66.5 581.808594 58.730469 591.34375 58.730469 C 601.089844 58.730469 608.53125 66.605469 608.53125 76.789062 "/>
<path style="fill-rule:nonzero;fill:rgb(5.490196%,13.72549%,18.039216%);fill-opacity:1;stroke-width:8.127036;stroke-linecap:butt;stroke-linejoin:round;stroke:rgb(9.803922%,68.235294%,100%);stroke-opacity:1;stroke-miterlimit:4;" d="M 43.217028 52.156634 C 43.300823 72.296654 49.872381 91.818306 71.659077 99.099328 C 92.31581 89.773132 99.090508 72.463917 98.575042 52.227594 " transform="matrix(1.538353,0,0,1.541357,-40.248662,-40.114671)"/>
<path style="fill-rule:nonzero;fill:rgb(9.803922%,68.235294%,100%);fill-opacity:1;stroke-width:5.478605;stroke-linecap:round;stroke-linejoin:round;stroke:rgb(9.803922%,68.235294%,100%);stroke-opacity:1;stroke-miterlimit:4;" d="M 42.013428 55.816152 C 39.710335 40.815677 59.7932 41.446716 70.795735 41.705213 C 81.79827 41.963711 101.373286 39.850111 99.930997 55.783206 " transform="matrix(1.538353,0,0,1.541357,-40.248662,-40.114671)"/>
<path style=" stroke:none;fill-rule:nonzero;fill:rgb(21.176471%,30.588235%,34.901961%);fill-opacity:1;" d="M 61.734375 29.773438 L 68.101562 29.773438 L 68.101562 34.976562 L 61.734375 34.976562 Z M 61.734375 29.773438 "/>
<path style=" stroke:none;fill-rule:nonzero;fill:rgb(21.176471%,30.588235%,34.901961%);fill-opacity:1;" d="M 71.117188 29.855469 L 77.488281 29.855469 L 77.488281 35.0625 L 71.117188 35.0625 Z M 71.117188 29.855469 "/>
<path style="fill-rule:nonzero;fill:rgb(5.490196%,13.72549%,18.039216%);fill-opacity:1;stroke-width:2.799508;stroke-linecap:round;stroke-linejoin:round;stroke:rgb(5.490196%,13.72549%,18.039216%);stroke-opacity:1;stroke-miterlimit:4;" d="M 55.798972 43.583124 L 86.02103 43.583124 L 86.02103 56.02143 L 55.798972 56.02143 Z M 55.798972 43.583124 " transform="matrix(1.538353,0,0,1.541357,-40.248662,-40.114671)"/>
<path style="fill-rule:nonzero;fill:rgb(9.803922%,68.235294%,100%);fill-opacity:1;stroke-width:1.673554;stroke-linecap:round;stroke-linejoin:round;stroke:rgb(9.803922%,68.235294%,100%);stroke-opacity:1;stroke-miterlimit:4;" d="M 64.203863 46.492491 L 68.977638 46.492491 L 68.977638 50.585373 L 64.203863 50.585373 Z M 64.203863 46.492491 " transform="matrix(1.538353,0,0,1.541357,-40.248662,-40.114671)"/>
<path style="fill-rule:nonzero;fill:rgb(9.803922%,68.235294%,100%);fill-opacity:1;stroke-width:1.26465;stroke-linecap:round;stroke-linejoin:round;stroke:rgb(9.803922%,68.235294%,100%);stroke-opacity:1;stroke-miterlimit:4;" d="M 52.984331 39.326274 L 52.984331 38.430821 L 28.932972 38.430821 L 28.932972 44.804752 L 44.171269 44.804752 C 42.179058 48.887169 38.194635 51.277393 33.365995 51.277393 C 26.145995 51.277393 20.617962 45.851797 20.617962 38.829192 C 20.617962 31.908824 25.697395 26.331635 32.966846 26.331635 C 37.251514 26.331635 40.783803 28.023829 43.076259 31.210794 L 51.091024 31.210794 C 48.703196 24.590085 41.1335 19.760282 33.118735 19.760282 C 22.362913 19.760282 13.747659 28.175421 13.747659 38.730481 C 13.747659 49.486488 22.461817 57.852272 33.765144 57.852272 C 44.61987 57.852272 52.984331 49.334896 52.984331 39.326274 " transform="matrix(1.105869,0,0,1.108029,31.937513,28.710503)"/>
<path style="fill-rule:nonzero;fill:rgb(9.803922%,68.235294%,100%);fill-opacity:1;stroke-width:1.673554;stroke-linecap:round;stroke-linejoin:round;stroke:rgb(9.803922%,68.235294%,100%);stroke-opacity:1;stroke-miterlimit:4;" d="M 72.839825 46.436737 L 77.616139 46.436737 L 77.616139 50.529619 L 72.839825 50.529619 Z M 72.839825 46.436737 " transform="matrix(1.538353,0,0,1.541357,-40.248662,-40.114671)"/>
</g>
</svg>
