<?xml version="1.0" encoding="UTF-8"?>
<svg xmlns="http://www.w3.org/2000/svg" xmlns:xlink="http://www.w3.org/1999/xlink" width="200pt" height="42pt" viewBox="0 0 200 42" version="1.1">
<g id="surface1">
<path style=" stroke:none;fill-rule:nonzero;fill:rgb(5.490196%,13.72549%,18.039216%);fill-opacity:1;" d="M 56.960938 24.183594 L 56.960938 8.894531 L 52.472656 8.894531 L 52.472656 24.183594 C 52.472656 27.972656 51.03125 29.148438 48.804688 29.148438 C 46.511719 29.148438 45.105469 27.941406 45.105469 24.183594 L 45.105469 8.894531 L 40.617188 8.894531 L 40.617188 24.183594 C 40.617188 30.324219 44.023438 33.460938 48.773438 33.460938 C 53.554688 33.460938 56.960938 30.359375 56.960938 24.183594 "/>
<path style=" stroke:none;fill-rule:nonzero;fill:rgb(5.490196%,13.72549%,18.039216%);fill-opacity:1;" d="M 75.515625 25.71875 C 75.515625 22.453125 74.171875 20.328125 69.261719 18.5 C 66.96875 17.652344 66.902344 17.617188 66.574219 17.421875 C 65.691406 16.867188 65.234375 16.113281 65.234375 15.234375 C 65.234375 13.796875 66.25 12.78125 67.722656 12.78125 C 69.226562 12.78125 70.144531 13.699219 70.277344 15.332031 L 74.925781 15.332031 C 74.699219 11.085938 71.652344 8.472656 67.753906 8.472656 C 63.859375 8.472656 60.714844 11.507812 60.714844 15.332031 C 60.714844 18.367188 62.515625 20.6875 65.757812 21.898438 C 68.964844 23.105469 69.226562 23.203125 69.949219 23.757812 C 70.667969 24.316406 71.0625 25.230469 71.0625 26.210938 C 71.0625 27.941406 69.71875 29.148438 67.789062 29.148438 C 65.789062 29.148438 64.710938 28.167969 64.511719 26.144531 L 59.828125 26.144531 C 60.222656 30.71875 63.53125 33.460938 67.789062 33.460938 C 72.144531 33.460938 75.515625 30.097656 75.515625 25.71875 "/>
<path style=" stroke:none;fill-rule:nonzero;fill:rgb(5.490196%,13.72549%,18.039216%);fill-opacity:1;" d="M 94.332031 25.851562 C 94.332031 22.976562 93.285156 21.144531 90.203125 19.871094 C 92.136719 18.859375 92.890625 17.585938 92.890625 15.332031 C 92.890625 13.078125 91.875 11.183594 90.140625 10.070312 C 88.699219 9.15625 87.191406 8.894531 83.589844 8.894531 L 78.613281 8.894531 L 78.613281 33.035156 L 85.0625 33.035156 C 91.285156 33.035156 94.332031 30.261719 94.332031 25.851562 M 89.8125 25.75 C 89.8125 27.84375 88.46875 28.757812 85.324219 28.757812 L 83.097656 28.757812 L 83.097656 22.582031 L 85.226562 22.582031 C 88.339844 22.582031 89.8125 23.597656 89.8125 25.75 M 88.402344 15.722656 C 88.402344 17.453125 87.257812 18.207031 84.539062 18.207031 L 83.097656 18.207031 L 83.097656 13.273438 L 84.933594 13.273438 C 87.257812 13.273438 88.402344 14.058594 88.402344 15.722656 "/>
<path style=" stroke:none;fill-rule:nonzero;fill:rgb(5.490196%,13.72549%,18.039216%);fill-opacity:1;" d="M 122.171875 21.308594 L 122.171875 20.722656 L 106.351562 20.722656 L 106.351562 24.902344 L 116.375 24.902344 C 115.0625 27.582031 112.445312 29.148438 109.265625 29.148438 C 104.519531 29.148438 100.882812 25.589844 100.882812 20.984375 C 100.882812 16.441406 104.222656 12.78125 109.003906 12.78125 C 111.820312 12.78125 114.148438 13.894531 115.652344 15.984375 L 120.925781 15.984375 C 119.355469 11.640625 114.375 8.472656 109.101562 8.472656 C 102.03125 8.472656 96.363281 13.992188 96.363281 20.917969 C 96.363281 27.972656 102.09375 33.460938 109.527344 33.460938 C 116.667969 33.460938 122.171875 27.875 122.171875 21.308594 "/>
<path style=" stroke:none;fill-rule:nonzero;fill:rgb(5.490196%,13.72549%,18.039216%);fill-opacity:1;" d="M 140.800781 33.035156 L 140.800781 14.9375 L 136.441406 14.9375 L 136.441406 23.464844 C 136.441406 25.882812 136.246094 26.992188 135.753906 27.808594 C 135.101562 28.855469 133.921875 29.476562 132.449219 29.476562 C 130.351562 29.476562 129.007812 28.59375 129.007812 23.792969 L 129.007812 14.9375 L 124.652344 14.9375 L 124.652344 24.640625 C 124.652344 31.011719 127.339844 33.460938 131.5625 33.460938 C 133.757812 33.460938 135.132812 32.90625 136.769531 31.304688 L 136.769531 33.035156 L 140.800781 33.035156 "/>
<path style=" stroke:none;fill-rule:nonzero;fill:rgb(5.490196%,13.72549%,18.039216%);fill-opacity:1;" d="M 162.664062 33.035156 L 162.664062 14.9375 L 158.667969 14.9375 L 158.667969 17.355469 C 157.160156 15.363281 155.359375 14.515625 152.738281 14.515625 C 147.367188 14.515625 143.503906 18.53125 143.503906 24.054688 C 143.503906 29.507812 147.335938 33.460938 152.640625 33.460938 C 155.195312 33.460938 156.929688 32.644531 158.667969 30.683594 L 158.667969 33.035156 L 162.664062 33.035156 M 158.535156 24.117188 C 158.535156 27.125 156.570312 29.476562 153.261719 29.476562 C 150.085938 29.476562 147.890625 27.320312 147.890625 24.152344 C 147.890625 20.851562 150.085938 18.5 153.199219 18.5 C 156.308594 18.5 158.535156 20.820312 158.535156 24.117188 "/>
<path style=" stroke:none;fill-rule:nonzero;fill:rgb(5.490196%,13.72549%,18.039216%);fill-opacity:1;" d="M 174.160156 18.695312 L 174.160156 14.515625 L 173.835938 14.515625 C 171.96875 14.515625 171.050781 15.039062 169.90625 16.703125 L 169.90625 14.9375 L 165.910156 14.9375 L 165.910156 33.035156 L 170.265625 33.035156 L 170.265625 22.976562 C 170.265625 20.164062 171.542969 18.761719 174.160156 18.695312 "/>
<path style=" stroke:none;fill-rule:nonzero;fill:rgb(5.490196%,13.72549%,18.039216%);fill-opacity:1;" d="M 194.195312 33.035156 L 194.195312 8.894531 L 189.839844 8.894531 L 189.839844 16.539062 C 188.5625 15.136719 186.464844 14.285156 184.171875 14.285156 C 179.097656 14.285156 175.101562 18.53125 175.101562 23.957031 C 175.101562 29.3125 179.0625 33.460938 184.207031 33.460938 C 186.660156 33.460938 188.460938 32.644531 190.199219 30.683594 L 190.199219 33.035156 L 194.195312 33.035156 M 190.164062 23.890625 C 190.164062 27.027344 187.839844 29.476562 184.894531 29.476562 C 181.847656 29.476562 179.488281 26.960938 179.488281 23.757812 C 179.488281 20.6875 181.816406 18.269531 184.796875 18.269531 C 187.839844 18.269531 190.164062 20.722656 190.164062 23.890625 "/>
<path style="fill-rule:nonzero;fill:rgb(5.490196%,13.72549%,18.039216%);fill-opacity:1;stroke-width:8.127036;stroke-linecap:butt;stroke-linejoin:round;stroke:rgb(9.803922%,68.235294%,100%);stroke-opacity:1;stroke-miterlimit:4;" d="M 43.21906 52.15772 C 43.300315 72.294482 49.873905 91.820297 71.658569 99.102767 C 92.313779 89.775667 99.090508 72.465546 98.578597 52.222888 " transform="matrix(0.480735,0,0,0.479533,-12.577707,-12.48012)"/>
<path style="fill-rule:nonzero;fill:rgb(9.803922%,68.235294%,100%);fill-opacity:1;stroke-width:5.478605;stroke-linecap:round;stroke-linejoin:round;stroke:rgb(9.803922%,68.235294%,100%);stroke-opacity:1;stroke-miterlimit:4;" d="M 42.016475 55.815247 C 39.708812 40.818573 59.795231 41.44581 70.797258 41.70648 C 81.799286 41.967151 101.373794 39.849206 99.927442 55.782663 " transform="matrix(0.480735,0,0,0.479533,-12.577707,-12.48012)"/>
<path style=" stroke:none;fill-rule:nonzero;fill:rgb(21.176471%,30.588235%,34.901961%);fill-opacity:1;" d="M 19.292969 9.261719 L 21.28125 9.261719 L 21.28125 10.882812 L 19.292969 10.882812 Z M 19.292969 9.261719 "/>
<path style=" stroke:none;fill-rule:nonzero;fill:rgb(21.176471%,30.588235%,34.901961%);fill-opacity:1;" d="M 22.222656 9.289062 L 24.214844 9.289062 L 24.214844 10.90625 L 22.222656 10.90625 Z M 22.222656 9.289062 "/>
<path style="fill-rule:nonzero;fill:rgb(5.490196%,13.72549%,18.039216%);fill-opacity:1;stroke-width:2.799508;stroke-linecap:round;stroke-linejoin:round;stroke:rgb(5.490196%,13.72549%,18.039216%);stroke-opacity:1;stroke-miterlimit:4;" d="M 55.797449 43.580046 L 86.016459 43.580046 L 86.016459 56.018895 L 55.797449 56.018895 Z M 55.797449 43.580046 " transform="matrix(0.480735,0,0,0.479533,-12.577707,-12.48012)"/>
<path style="fill-rule:nonzero;fill:rgb(9.803922%,68.235294%,100%);fill-opacity:1;stroke-width:1.673554;stroke-linecap:round;stroke-linejoin:round;stroke:rgb(9.803922%,68.235294%,100%);stroke-opacity:1;stroke-miterlimit:4;" d="M 64.199292 46.496293 L 68.97713 46.496293 L 68.97713 50.585554 L 64.199292 50.585554 Z M 64.199292 46.496293 " transform="matrix(0.480735,0,0,0.479533,-12.577707,-12.48012)"/>
<path style="fill-rule:nonzero;fill:rgb(9.803922%,68.235294%,100%);fill-opacity:1;stroke-width:1.26465;stroke-linecap:round;stroke-linejoin:round;stroke:rgb(9.803922%,68.235294%,100%);stroke-opacity:1;stroke-miterlimit:4;" d="M 52.989983 39.325015 L 52.989983 38.429814 L 28.936504 38.429814 L 28.936504 44.809536 L 44.173388 44.809536 C 42.184003 48.888932 38.193929 51.279912 33.367408 51.279912 C 26.144582 51.279912 20.617256 45.852048 20.617256 38.826422 C 20.617256 31.914112 25.692449 26.327606 32.971792 26.327606 C 37.244449 26.327606 40.78239 28.027354 43.076966 31.211549 L 51.091024 31.211549 C 48.706022 24.593862 41.132793 19.755245 33.118735 19.755245 C 22.357968 19.755245 13.744833 28.174666 13.744833 38.735769 C 13.744833 49.48951 22.459698 57.852272 33.763025 57.852272 C 44.614218 57.852272 52.989983 49.330867 52.989983 39.325015 " transform="matrix(0.345584,0,0,0.34472,9.980473,8.932156)"/>
<path style="fill-rule:nonzero;fill:rgb(9.803922%,68.235294%,100%);fill-opacity:1;stroke-width:1.673554;stroke-linecap:round;stroke-linejoin:round;stroke:rgb(9.803922%,68.235294%,100%);stroke-opacity:1;stroke-miterlimit:4;" d="M 72.844903 46.439271 L 77.614615 46.439271 L 77.614615 50.528532 L 72.844903 50.528532 Z M 72.844903 46.439271 " transform="matrix(0.480735,0,0,0.479533,-12.577707,-12.48012)"/>
</g>
</svg>
