<?xml version="1.0" encoding="UTF-8"?>
<svg xmlns="http://www.w3.org/2000/svg" xmlns:xlink="http://www.w3.org/1999/xlink" width="500pt" height="105pt" viewBox="0 0 500 105" version="1.1">
<g id="surface1">
<path style=" stroke:none;fill-rule:nonzero;fill:rgb(5.490196%,13.72549%,18.039216%);fill-opacity:1;" d="M 142.398438 60.460938 L 142.398438 22.238281 L 131.183594 22.238281 L 131.183594 60.460938 C 131.183594 69.933594 127.582031 72.871094 122.015625 72.871094 C 116.285156 72.871094 112.761719 69.851562 112.761719 60.460938 L 112.761719 22.238281 L 101.546875 22.238281 L 101.546875 60.460938 C 101.546875 75.8125 110.0625 83.652344 121.933594 83.652344 C 133.886719 83.652344 142.398438 75.894531 142.398438 60.460938 "/>
<path style=" stroke:none;fill-rule:nonzero;fill:rgb(5.490196%,13.72549%,18.039216%);fill-opacity:1;" d="M 188.789062 64.296875 C 188.789062 56.132812 185.433594 50.824219 173.152344 46.25 C 167.421875 44.125 167.257812 44.042969 166.441406 43.554688 C 164.230469 42.167969 163.082031 40.289062 163.082031 38.082031 C 163.082031 34.488281 165.621094 31.957031 169.304688 31.957031 C 173.070312 31.957031 175.363281 34.246094 175.691406 38.328125 L 187.316406 38.328125 C 186.742188 27.710938 179.128906 21.179688 169.386719 21.179688 C 159.644531 21.179688 151.785156 28.773438 151.785156 38.328125 C 151.785156 45.921875 156.289062 51.722656 164.394531 54.742188 C 172.417969 57.765625 173.070312 58.007812 174.871094 59.398438 C 176.671875 60.785156 177.65625 63.074219 177.65625 65.523438 C 177.65625 69.851562 174.300781 72.871094 169.46875 72.871094 C 164.476562 72.871094 161.773438 70.421875 161.28125 65.359375 L 149.574219 65.359375 C 150.554688 76.792969 158.824219 83.652344 169.46875 83.652344 C 180.359375 83.652344 188.789062 75.242188 188.789062 64.296875 "/>
<path style=" stroke:none;fill-rule:nonzero;fill:rgb(5.490196%,13.72549%,18.039216%);fill-opacity:1;" d="M 235.828125 64.625 C 235.828125 57.4375 233.207031 52.863281 225.511719 49.679688 C 230.34375 47.148438 232.226562 43.960938 232.226562 38.328125 C 232.226562 32.691406 229.6875 27.957031 225.347656 25.179688 C 221.746094 22.894531 217.980469 22.238281 208.972656 22.238281 L 196.53125 22.238281 L 196.53125 82.589844 L 212.660156 82.589844 C 228.214844 82.589844 235.828125 75.648438 235.828125 64.625 M 224.53125 64.378906 C 224.53125 69.605469 221.171875 71.894531 213.3125 71.894531 L 207.746094 71.894531 L 207.746094 56.457031 L 213.066406 56.457031 C 220.847656 56.457031 224.53125 58.988281 224.53125 64.378906 M 221.007812 39.308594 C 221.007812 43.636719 218.144531 45.515625 211.347656 45.515625 L 207.746094 45.515625 L 207.746094 33.183594 L 212.332031 33.183594 C 218.144531 33.183594 221.007812 35.144531 221.007812 39.308594 "/>
<path style=" stroke:none;fill-rule:nonzero;fill:rgb(5.490196%,13.72549%,18.039216%);fill-opacity:1;" d="M 305.425781 53.273438 L 305.425781 51.804688 L 265.882812 51.804688 L 265.882812 62.257812 L 290.933594 62.257812 C 287.660156 68.953125 281.109375 72.871094 273.167969 72.871094 C 261.296875 72.871094 252.207031 63.972656 252.207031 52.457031 C 252.207031 41.105469 260.558594 31.957031 272.511719 31.957031 C 279.554688 31.957031 285.367188 34.734375 289.132812 39.960938 L 302.3125 39.960938 C 298.382812 29.097656 285.941406 21.179688 272.757812 21.179688 C 255.074219 21.179688 240.910156 34.980469 240.910156 52.292969 C 240.910156 69.933594 255.238281 83.652344 273.824219 83.652344 C 291.671875 83.652344 305.425781 69.6875 305.425781 53.273438 "/>
<path style=" stroke:none;fill-rule:nonzero;fill:rgb(5.490196%,13.72549%,18.039216%);fill-opacity:1;" d="M 351.996094 82.589844 L 351.996094 37.347656 L 341.109375 37.347656 L 341.109375 58.664062 C 341.109375 64.707031 340.617188 67.484375 339.390625 69.523438 C 337.75 72.136719 334.804688 73.691406 331.121094 73.691406 C 325.878906 73.691406 322.523438 71.484375 322.523438 59.480469 L 322.523438 37.347656 L 311.632812 37.347656 L 311.632812 61.601562 C 311.632812 77.527344 318.347656 83.652344 328.910156 83.652344 C 334.394531 83.652344 337.832031 82.265625 341.925781 78.261719 L 341.925781 82.589844 L 351.996094 82.589844 "/>
<path style=" stroke:none;fill-rule:nonzero;fill:rgb(5.490196%,13.72549%,18.039216%);fill-opacity:1;" d="M 406.65625 82.589844 L 406.65625 37.347656 L 396.667969 37.347656 L 396.667969 43.390625 C 392.902344 38.410156 388.398438 36.285156 381.847656 36.285156 C 368.421875 36.285156 358.761719 46.332031 358.761719 60.132812 C 358.761719 73.769531 368.339844 83.652344 381.601562 83.652344 C 387.988281 83.652344 392.328125 81.609375 396.667969 76.710938 L 396.667969 82.589844 L 406.65625 82.589844 M 396.339844 60.296875 C 396.339844 67.808594 391.425781 73.691406 383.160156 73.691406 C 375.214844 73.691406 369.730469 68.300781 369.730469 60.378906 C 369.730469 52.128906 375.214844 46.25 382.996094 46.25 C 390.773438 46.25 396.339844 52.046875 396.339844 60.296875 "/>
<path style=" stroke:none;fill-rule:nonzero;fill:rgb(5.490196%,13.72549%,18.039216%);fill-opacity:1;" d="M 435.40625 46.738281 L 435.40625 36.285156 L 434.585938 36.285156 C 429.917969 36.285156 427.628906 37.59375 424.761719 41.757812 L 424.761719 37.347656 L 414.773438 37.347656 L 414.773438 82.589844 L 425.664062 82.589844 L 425.664062 57.4375 C 425.664062 50.414062 428.855469 46.902344 435.40625 46.738281 "/>
<path style=" stroke:none;fill-rule:nonzero;fill:rgb(5.490196%,13.72549%,18.039216%);fill-opacity:1;" d="M 485.484375 82.589844 L 485.484375 22.238281 L 474.597656 22.238281 L 474.597656 41.347656 C 471.402344 37.835938 466.164062 35.714844 460.433594 35.714844 C 447.742188 35.714844 437.753906 46.332031 437.753906 59.886719 C 437.753906 73.28125 447.660156 83.652344 460.515625 83.652344 C 466.652344 83.652344 471.15625 81.609375 475.496094 76.710938 L 475.496094 82.589844 L 485.484375 82.589844 M 475.414062 59.722656 C 475.414062 67.566406 469.601562 73.691406 462.234375 73.691406 C 454.617188 73.691406 448.722656 67.402344 448.722656 59.398438 C 448.722656 51.722656 454.539062 45.679688 461.988281 45.679688 C 469.601562 45.679688 475.414062 51.804688 475.414062 59.722656 "/>
<path style="fill-rule:nonzero;fill:rgb(5.490196%,13.72549%,18.039216%);fill-opacity:1;stroke-width:8.127036;stroke-linecap:butt;stroke-linejoin:round;stroke:rgb(9.803922%,68.235294%,100%);stroke-opacity:1;stroke-miterlimit:4;" d="M 43.217435 52.15772 C 43.29869 72.29774 49.873905 91.818668 71.656944 99.101138 C 92.315404 89.775667 99.092133 72.463917 98.575346 52.226146 " transform="matrix(1.201838,0,0,1.198834,-31.444268,-31.2003)"/>
<path style="fill-rule:nonzero;fill:rgb(9.803922%,68.235294%,100%);fill-opacity:1;stroke-width:5.478605;stroke-linecap:round;stroke-linejoin:round;stroke:rgb(9.803922%,68.235294%,100%);stroke-opacity:1;stroke-miterlimit:4;" d="M 42.01485 55.816876 C 39.710437 40.815315 59.793606 41.44744 70.795633 41.704851 C 81.800911 41.965521 101.373794 39.850836 99.930692 55.784292 " transform="matrix(1.201838,0,0,1.198834,-31.444268,-31.2003)"/>
<path style=" stroke:none;fill-rule:nonzero;fill:rgb(21.176471%,30.588235%,34.901961%);fill-opacity:1;" d="M 48.230469 23.15625 L 53.203125 23.15625 L 53.203125 27.203125 L 48.230469 27.203125 Z M 48.230469 23.15625 "/>
<path style=" stroke:none;fill-rule:nonzero;fill:rgb(21.176471%,30.588235%,34.901961%);fill-opacity:1;" d="M 55.5625 23.222656 L 60.535156 23.222656 L 60.535156 27.269531 L 55.5625 27.269531 Z M 55.5625 23.222656 "/>
<path style="fill-rule:nonzero;fill:rgb(5.490196%,13.72549%,18.039216%);fill-opacity:1;stroke-width:2.799508;stroke-linecap:round;stroke-linejoin:round;stroke:rgb(5.490196%,13.72549%,18.039216%);stroke-opacity:1;stroke-miterlimit:4;" d="M 55.799074 43.584934 L 86.019709 43.584934 L 86.019709 56.022154 L 55.799074 56.022154 Z M 55.799074 43.584934 " transform="matrix(1.201838,0,0,1.198834,-31.444268,-31.2003)"/>
<path style="fill-rule:nonzero;fill:rgb(9.803922%,68.235294%,100%);fill-opacity:1;stroke-width:1.673554;stroke-linecap:round;stroke-linejoin:round;stroke:rgb(9.803922%,68.235294%,100%);stroke-opacity:1;stroke-miterlimit:4;" d="M 64.204168 46.491405 L 68.978755 46.491405 L 68.978755 50.587183 L 64.204168 50.587183 Z M 64.204168 46.491405 " transform="matrix(1.201838,0,0,1.198834,-31.444268,-31.2003)"/>
<path style="fill-rule:nonzero;fill:rgb(9.803922%,68.235294%,100%);fill-opacity:1;stroke-width:1.26465;stroke-linecap:round;stroke-linejoin:round;stroke:rgb(9.803922%,68.235294%,100%);stroke-opacity:1;stroke-miterlimit:4;" d="M 52.983201 39.327281 L 52.983201 38.429814 L 28.934243 38.429814 L 28.934243 44.80727 L 44.171128 44.80727 C 42.177221 48.886666 38.193929 51.279912 33.365147 51.279912 C 26.144582 51.279912 20.619516 45.849782 20.619516 38.828688 C 20.619516 31.907313 25.696971 26.332138 32.96727 26.332138 C 37.24897 26.332138 40.784651 28.022821 43.076966 31.213816 L 51.093285 31.213816 C 48.701501 24.587063 41.132793 19.759778 33.116474 19.759778 C 22.360229 19.759778 13.747094 28.172399 13.747094 38.72897 C 13.747094 49.484977 22.459698 57.852272 33.763025 57.852272 C 44.618739 57.852272 52.983201 49.335399 52.983201 39.327281 " transform="matrix(0.86396,0,0,0.8618,24.951182,22.330391)"/>
<path style="fill-rule:nonzero;fill:rgb(9.803922%,68.235294%,100%);fill-opacity:1;stroke-width:1.673554;stroke-linecap:round;stroke-linejoin:round;stroke:rgb(9.803922%,68.235294%,100%);stroke-opacity:1;stroke-miterlimit:4;" d="M 72.840028 46.436013 L 77.617865 46.436013 L 77.617865 50.531791 L 72.840028 50.531791 Z M 72.840028 46.436013 " transform="matrix(1.201838,0,0,1.198834,-31.444268,-31.2003)"/>
</g>
</svg>
