<?xml version="1.0" encoding="UTF-8"?>
<svg xmlns="http://www.w3.org/2000/svg" xmlns:xlink="http://www.w3.org/1999/xlink" width="1440pt" height="303pt" viewBox="0 0 1440 303" version="1.1">
<g id="surface1">
<path style=" stroke:none;fill-rule:nonzero;fill:rgb(5.490196%,13.72549%,18.039216%);fill-opacity:1;" d="M 410.113281 174.46875 L 410.113281 64.175781 L 377.808594 64.175781 L 377.808594 174.46875 C 377.808594 201.804688 367.433594 210.289062 351.402344 210.289062 C 334.894531 210.289062 324.757812 201.570312 324.757812 174.46875 L 324.757812 64.175781 L 292.453125 64.175781 L 292.453125 174.46875 C 292.453125 218.773438 316.976562 241.398438 351.164062 241.398438 C 385.589844 241.398438 410.113281 219.011719 410.113281 174.46875 "/>
<path style=" stroke:none;fill-rule:nonzero;fill:rgb(5.490196%,13.72549%,18.039216%);fill-opacity:1;" d="M 543.714844 185.546875 C 543.714844 161.980469 534.050781 146.660156 498.679688 133.460938 C 482.175781 127.335938 481.703125 127.101562 479.347656 125.6875 C 472.980469 121.679688 469.679688 116.257812 469.679688 109.894531 C 469.679688 99.527344 476.988281 92.222656 487.597656 92.222656 C 498.445312 92.222656 505.046875 98.820312 505.992188 110.601562 L 539.472656 110.601562 C 537.820312 79.964844 515.894531 61.113281 487.835938 61.113281 C 459.777344 61.113281 437.140625 83.03125 437.140625 110.601562 C 437.140625 132.519531 450.109375 149.253906 473.453125 157.972656 C 496.558594 166.691406 498.445312 167.398438 503.632812 171.40625 C 508.820312 175.410156 511.648438 182.011719 511.648438 189.082031 C 511.648438 201.570312 501.980469 210.289062 488.070312 210.289062 C 473.6875 210.289062 465.90625 203.21875 464.492188 188.609375 L 430.773438 188.609375 C 433.601562 221.601562 457.417969 241.398438 488.070312 241.398438 C 519.429688 241.398438 543.714844 217.125 543.714844 185.546875 "/>
<path style=" stroke:none;fill-rule:nonzero;fill:rgb(5.490196%,13.72549%,18.039216%);fill-opacity:1;" d="M 679.183594 186.488281 C 679.183594 165.75 671.640625 152.550781 649.476562 143.359375 C 663.386719 136.054688 668.808594 126.863281 668.808594 110.601562 C 668.808594 94.34375 661.5 80.671875 649.003906 72.660156 C 638.628906 66.0625 627.78125 64.175781 601.847656 64.175781 L 566.007812 64.175781 L 566.007812 238.335938 L 612.457031 238.335938 C 657.257812 238.335938 679.183594 218.304688 679.183594 186.488281 M 646.644531 185.78125 C 646.644531 200.863281 636.980469 207.460938 614.34375 207.460938 L 598.308594 207.460938 L 598.308594 162.921875 L 613.636719 162.921875 C 636.035156 162.921875 646.644531 170.226562 646.644531 185.78125 M 636.507812 113.429688 C 636.507812 125.921875 628.253906 131.34375 608.683594 131.34375 L 598.308594 131.34375 L 598.308594 95.757812 L 611.511719 95.757812 C 628.253906 95.757812 636.507812 101.414062 636.507812 113.429688 "/>
<path style=" stroke:none;fill-rule:nonzero;fill:rgb(5.490196%,13.72549%,18.039216%);fill-opacity:1;" d="M 879.625 153.730469 L 879.625 149.488281 L 765.738281 149.488281 L 765.738281 179.652344 L 837.890625 179.652344 C 828.457031 198.976562 809.59375 210.289062 786.722656 210.289062 C 752.535156 210.289062 726.363281 184.601562 726.363281 151.375 C 726.363281 118.617188 750.410156 92.222656 784.835938 92.222656 C 805.113281 92.222656 821.855469 100.234375 832.703125 115.316406 L 870.664062 115.316406 C 859.347656 83.972656 823.507812 61.113281 785.542969 61.113281 C 734.613281 61.113281 693.824219 100.941406 693.824219 150.902344 C 693.824219 201.804688 735.085938 241.398438 788.609375 241.398438 C 840.011719 241.398438 879.625 201.097656 879.625 153.730469 "/>
<path style=" stroke:none;fill-rule:nonzero;fill:rgb(5.490196%,13.72549%,18.039216%);fill-opacity:1;" d="M 1013.753906 238.335938 L 1013.753906 107.773438 L 982.390625 107.773438 L 982.390625 169.285156 C 982.390625 186.722656 980.976562 194.734375 977.441406 200.628906 C 972.726562 208.167969 964.234375 212.648438 953.625 212.648438 C 938.535156 212.648438 928.867188 206.285156 928.867188 171.640625 L 928.867188 107.773438 L 897.507812 107.773438 L 897.507812 177.769531 C 897.507812 223.722656 916.84375 241.398438 947.257812 241.398438 C 963.058594 241.398438 972.960938 237.390625 984.75 225.84375 L 984.75 238.335938 L 1013.753906 238.335938 "/>
<path style=" stroke:none;fill-rule:nonzero;fill:rgb(5.490196%,13.72549%,18.039216%);fill-opacity:1;" d="M 1171.167969 238.335938 L 1171.167969 107.773438 L 1142.402344 107.773438 L 1142.402344 125.214844 C 1131.554688 110.839844 1118.585938 104.710938 1099.722656 104.710938 C 1061.054688 104.710938 1033.230469 133.699219 1033.230469 173.527344 C 1033.230469 212.882812 1060.816406 241.398438 1099.015625 241.398438 C 1117.40625 241.398438 1129.902344 235.507812 1142.402344 221.367188 L 1142.402344 238.335938 L 1171.167969 238.335938 M 1141.457031 173.996094 C 1141.457031 195.679688 1127.308594 212.648438 1103.496094 212.648438 C 1080.625 212.648438 1064.828125 197.09375 1064.828125 174.234375 C 1064.828125 150.429688 1080.625 133.460938 1103.023438 133.460938 C 1125.425781 133.460938 1141.457031 150.195312 1141.457031 173.996094 "/>
<path style=" stroke:none;fill-rule:nonzero;fill:rgb(5.490196%,13.72549%,18.039216%);fill-opacity:1;" d="M 1253.964844 134.875 L 1253.964844 104.710938 L 1251.609375 104.710938 C 1238.167969 104.710938 1231.566406 108.480469 1223.3125 120.5 L 1223.3125 107.773438 L 1194.546875 107.773438 L 1194.546875 238.335938 L 1225.90625 238.335938 L 1225.90625 165.75 C 1225.90625 145.480469 1235.101562 135.347656 1253.964844 134.875 "/>
<path style=" stroke:none;fill-rule:nonzero;fill:rgb(5.490196%,13.72549%,18.039216%);fill-opacity:1;" d="M 1398.195312 238.335938 L 1398.195312 64.175781 L 1366.835938 64.175781 L 1366.835938 119.324219 C 1357.640625 109.1875 1342.550781 103.0625 1326.042969 103.0625 C 1289.496094 103.0625 1260.730469 133.699219 1260.730469 172.820312 C 1260.730469 211.46875 1289.261719 241.398438 1326.28125 241.398438 C 1343.964844 241.398438 1356.933594 235.507812 1369.429688 221.367188 L 1369.429688 238.335938 L 1398.195312 238.335938 M 1369.195312 172.347656 C 1369.195312 194.972656 1352.453125 212.648438 1331.230469 212.648438 C 1309.304688 212.648438 1292.328125 194.5 1292.328125 171.40625 C 1292.328125 149.253906 1309.066406 131.8125 1330.523438 131.8125 C 1352.453125 131.8125 1369.195312 149.488281 1369.195312 172.347656 "/>
<path style="fill-rule:nonzero;fill:rgb(5.490196%,13.72549%,18.039216%);fill-opacity:1;stroke-width:8.127036;stroke-linecap:butt;stroke-linejoin:round;stroke:rgb(9.803922%,68.235294%,100%);stroke-opacity:1;stroke-miterlimit:4;" d="M 43.217028 52.157236 C 43.299413 72.297708 49.873228 91.817152 71.658795 99.100105 C 92.31581 89.774538 99.090508 72.462562 98.575888 52.227243 " transform="matrix(3.461294,0,0,3.459491,-90.559491,-90.035151)"/>
<path style="fill-rule:nonzero;fill:rgb(9.803922%,68.235294%,100%);fill-opacity:1;stroke-width:5.478605;stroke-linecap:round;stroke-linejoin:round;stroke:rgb(9.803922%,68.235294%,100%);stroke-opacity:1;stroke-miterlimit:4;" d="M 42.013992 55.81565 C 39.709489 40.816154 59.7932 41.447343 70.796581 41.705916 C 81.798835 41.964489 101.37244 39.850739 99.931279 55.784034 " transform="matrix(3.461294,0,0,3.459491,-90.559491,-90.035151)"/>
<path style=" stroke:none;fill-rule:nonzero;fill:rgb(21.176471%,30.588235%,34.901961%);fill-opacity:1;" d="M 138.898438 66.820312 L 153.226562 66.820312 L 153.226562 78.503906 L 138.898438 78.503906 Z M 138.898438 66.820312 "/>
<path style=" stroke:none;fill-rule:nonzero;fill:rgb(21.176471%,30.588235%,34.901961%);fill-opacity:1;" d="M 160.015625 67.011719 L 174.34375 67.011719 L 174.34375 78.695312 L 160.015625 78.695312 Z M 160.015625 67.011719 "/>
<path style="fill-rule:nonzero;fill:rgb(5.490196%,13.72549%,18.039216%);fill-opacity:1;stroke-width:2.799508;stroke-linecap:round;stroke-linejoin:round;stroke:rgb(5.490196%,13.72549%,18.039216%);stroke-opacity:1;stroke-miterlimit:4;" d="M 55.800383 43.583676 L 86.019619 43.583676 L 86.019619 56.022283 L 55.800383 56.022283 Z M 55.800383 43.583676 " transform="matrix(3.461294,0,0,3.459491,-90.559491,-90.035151)"/>
<path style="fill-rule:nonzero;fill:rgb(9.803922%,68.235294%,100%);fill-opacity:1;stroke-width:1.673554;stroke-linecap:round;stroke-linejoin:round;stroke:rgb(9.803922%,68.235294%,100%);stroke-opacity:1;stroke-miterlimit:4;" d="M 64.202452 46.492341 L 68.978484 46.492341 L 68.978484 50.586602 L 64.202452 50.586602 Z M 64.202452 46.492341 " transform="matrix(3.461294,0,0,3.459491,-90.559491,-90.035151)"/>
<path style="fill-rule:nonzero;fill:rgb(9.803922%,68.235294%,100%);fill-opacity:1;stroke-width:1.26465;stroke-linecap:round;stroke-linejoin:round;stroke:rgb(9.803922%,68.235294%,100%);stroke-opacity:1;stroke-miterlimit:4;" d="M 52.984331 39.328717 L 52.984331 38.431833 L 28.934934 38.431833 L 28.934934 44.805834 L 44.170876 44.805834 C 42.178665 48.888147 38.195812 51.27879 33.36521 51.27879 C 26.14521 51.27879 20.61914 45.850366 20.61914 38.830798 C 20.61914 31.908614 25.697787 26.332542 32.968024 26.332542 C 37.249159 26.332542 40.784588 28.024213 43.075082 31.211213 L 51.092594 31.211213 C 48.701626 24.589038 41.133107 19.75906 33.117165 19.75906 C 22.361736 19.75906 13.747659 28.175002 13.747659 38.730271 C 13.747659 49.485022 22.46064 57.850701 33.763966 57.850701 C 44.61987 57.850701 52.984331 49.335803 52.984331 39.328717 " transform="matrix(2.488206,0,0,2.48691,71.859404,64.439128)"/>
<path style="fill-rule:nonzero;fill:rgb(9.803922%,68.235294%,100%);fill-opacity:1;stroke-width:1.673554;stroke-linecap:round;stroke-linejoin:round;stroke:rgb(9.803922%,68.235294%,100%);stroke-opacity:1;stroke-miterlimit:4;" d="M 72.841518 46.437013 L 77.617549 46.437013 L 77.617549 50.530145 L 72.841518 50.530145 Z M 72.841518 46.437013 " transform="matrix(3.461294,0,0,3.459491,-90.559491,-90.035151)"/>
</g>
</svg>
