<?xml version="1.0" encoding="UTF-8"?>
<svg xmlns="http://www.w3.org/2000/svg" xmlns:xlink="http://www.w3.org/1999/xlink" width="600pt" height="126pt" viewBox="0 0 600 126" version="1.1">
<g id="surface1">
<path style=" stroke:none;fill-rule:nonzero;fill:rgb(5.490196%,13.72549%,18.039216%);fill-opacity:1;" d="M 170.878906 72.550781 L 170.878906 26.6875 L 157.421875 26.6875 L 157.421875 72.550781 C 157.421875 83.917969 153.097656 87.449219 146.417969 87.449219 C 139.539062 87.449219 135.316406 83.820312 135.316406 72.550781 L 135.316406 26.6875 L 121.855469 26.6875 L 121.855469 72.550781 C 121.855469 90.976562 132.074219 100.382812 146.320312 100.382812 C 160.664062 100.382812 170.878906 91.074219 170.878906 72.550781 "/>
<path style=" stroke:none;fill-rule:nonzero;fill:rgb(5.490196%,13.72549%,18.039216%);fill-opacity:1;" d="M 226.546875 77.15625 C 226.546875 67.355469 222.519531 60.988281 207.785156 55.5 C 200.90625 52.953125 200.710938 52.851562 199.726562 52.265625 C 197.074219 50.597656 195.699219 48.34375 195.699219 45.699219 C 195.699219 41.386719 198.746094 38.347656 203.167969 38.347656 C 207.683594 38.347656 210.4375 41.09375 210.828125 45.992188 L 224.78125 45.992188 C 224.09375 33.253906 214.957031 25.414062 203.265625 25.414062 C 191.574219 25.414062 182.140625 34.527344 182.140625 45.992188 C 182.140625 55.105469 187.546875 62.066406 197.269531 65.691406 C 206.898438 69.316406 207.683594 69.613281 209.847656 71.277344 C 212.007812 72.945312 213.1875 75.6875 213.1875 78.628906 C 213.1875 83.820312 209.160156 87.449219 203.363281 87.449219 C 197.371094 87.449219 194.128906 84.507812 193.539062 78.429688 L 179.488281 78.429688 C 180.667969 92.152344 190.589844 100.382812 203.363281 100.382812 C 216.429688 100.382812 226.546875 90.289062 226.546875 77.15625 "/>
<path style=" stroke:none;fill-rule:nonzero;fill:rgb(5.490196%,13.72549%,18.039216%);fill-opacity:1;" d="M 282.992188 77.550781 C 282.992188 68.925781 279.851562 63.4375 270.613281 59.617188 C 276.410156 56.578125 278.671875 52.753906 278.671875 45.992188 C 278.671875 39.230469 275.625 33.546875 270.417969 30.214844 C 266.09375 27.472656 261.578125 26.6875 250.769531 26.6875 L 235.835938 26.6875 L 235.835938 99.109375 L 255.191406 99.109375 C 273.855469 99.109375 282.992188 90.78125 282.992188 77.550781 M 269.4375 77.253906 C 269.4375 83.527344 265.40625 86.269531 255.976562 86.269531 L 249.296875 86.269531 L 249.296875 67.75 L 255.679688 67.75 C 265.015625 67.75 269.4375 70.789062 269.4375 77.253906 M 265.210938 47.167969 C 265.210938 52.363281 261.773438 54.617188 253.617188 54.617188 L 249.296875 54.617188 L 249.296875 39.820312 L 254.796875 39.820312 C 261.773438 39.820312 265.210938 42.171875 265.210938 47.167969 "/>
<path style=" stroke:none;fill-rule:nonzero;fill:rgb(5.490196%,13.72549%,18.039216%);fill-opacity:1;" d="M 366.511719 63.925781 L 366.511719 62.164062 L 319.058594 62.164062 L 319.058594 74.707031 L 349.121094 74.707031 C 345.191406 82.742188 337.332031 87.449219 327.800781 87.449219 C 313.554688 87.449219 302.652344 76.765625 302.652344 62.949219 C 302.652344 49.324219 312.671875 38.347656 327.015625 38.347656 C 335.464844 38.347656 342.441406 41.679688 346.960938 47.953125 L 362.777344 47.953125 C 358.0625 34.917969 343.128906 25.414062 327.308594 25.414062 C 306.089844 25.414062 289.09375 41.976562 289.09375 62.75 C 289.09375 83.917969 306.285156 100.382812 328.585938 100.382812 C 350.003906 100.382812 366.511719 83.625 366.511719 63.925781 "/>
<path style=" stroke:none;fill-rule:nonzero;fill:rgb(5.490196%,13.72549%,18.039216%);fill-opacity:1;" d="M 422.398438 99.109375 L 422.398438 44.816406 L 409.328125 44.816406 L 409.328125 70.394531 C 409.328125 77.648438 408.742188 80.980469 407.265625 83.429688 C 405.300781 86.566406 401.765625 88.425781 397.34375 88.425781 C 391.054688 88.425781 387.027344 85.78125 387.027344 71.375 L 387.027344 44.816406 L 373.960938 44.816406 L 373.960938 73.921875 C 373.960938 93.035156 382.019531 100.382812 394.691406 100.382812 C 401.273438 100.382812 405.398438 98.71875 410.3125 93.914062 L 410.3125 99.109375 L 422.398438 99.109375 "/>
<path style=" stroke:none;fill-rule:nonzero;fill:rgb(5.490196%,13.72549%,18.039216%);fill-opacity:1;" d="M 487.988281 99.109375 L 487.988281 44.816406 L 476 44.816406 L 476 52.070312 C 471.480469 46.089844 466.078125 43.542969 458.21875 43.542969 C 442.105469 43.542969 430.511719 55.597656 430.511719 72.160156 C 430.511719 88.527344 442.007812 100.382812 457.921875 100.382812 C 465.585938 100.382812 470.792969 97.933594 476 92.054688 L 476 99.109375 L 487.988281 99.109375 M 475.605469 72.355469 C 475.605469 81.371094 469.710938 88.425781 459.789062 88.425781 C 450.261719 88.425781 443.675781 81.960938 443.675781 72.453125 C 443.675781 62.554688 450.261719 55.5 459.59375 55.5 C 468.925781 55.5 475.605469 62.457031 475.605469 72.355469 "/>
<path style=" stroke:none;fill-rule:nonzero;fill:rgb(5.490196%,13.72549%,18.039216%);fill-opacity:1;" d="M 522.484375 56.085938 L 522.484375 43.542969 L 521.503906 43.542969 C 515.902344 43.542969 513.152344 45.113281 509.714844 50.109375 L 509.714844 44.816406 L 497.726562 44.816406 L 497.726562 99.109375 L 510.792969 99.109375 L 510.792969 68.925781 C 510.792969 60.496094 514.625 56.285156 522.484375 56.085938 "/>
<path style=" stroke:none;fill-rule:nonzero;fill:rgb(5.490196%,13.72549%,18.039216%);fill-opacity:1;" d="M 582.582031 99.109375 L 582.582031 26.6875 L 569.515625 26.6875 L 569.515625 49.621094 C 565.683594 45.40625 559.394531 42.855469 552.519531 42.855469 C 537.289062 42.855469 525.304688 55.597656 525.304688 71.867188 C 525.304688 87.9375 537.191406 100.382812 552.617188 100.382812 C 559.984375 100.382812 565.386719 97.933594 570.59375 92.054688 L 570.59375 99.109375 L 582.582031 99.109375 M 570.496094 71.667969 C 570.496094 81.078125 563.523438 88.425781 554.679688 88.425781 C 545.542969 88.425781 538.46875 80.882812 538.46875 71.277344 C 538.46875 62.066406 545.445312 54.8125 554.386719 54.8125 C 563.523438 54.8125 570.496094 62.164062 570.496094 71.667969 "/>
<path style="fill-rule:nonzero;fill:rgb(5.490196%,13.72549%,18.039216%);fill-opacity:1;stroke-width:8.127036;stroke-linecap:butt;stroke-linejoin:round;stroke:rgb(9.803922%,68.235294%,100%);stroke-opacity:1;stroke-miterlimit:4;" d="M 43.216351 52.15772 C 43.300315 72.297197 49.873905 91.817582 71.658569 99.100052 C 92.316487 89.772951 99.090508 72.462831 98.575888 52.225603 " transform="matrix(1.442206,0,0,1.4386,-37.733121,-37.44036)"/>
<path style="fill-rule:nonzero;fill:rgb(9.803922%,68.235294%,100%);fill-opacity:1;stroke-width:5.478605;stroke-linecap:round;stroke-linejoin:round;stroke:rgb(9.803922%,68.235294%,100%);stroke-opacity:1;stroke-miterlimit:4;" d="M 42.013766 55.815247 C 39.708812 40.815858 59.792522 41.44581 70.797258 41.70648 C 81.799286 41.964435 101.373794 39.851922 99.93015 55.785378 " transform="matrix(1.442206,0,0,1.4386,-37.733121,-37.44036)"/>
<path style=" stroke:none;fill-rule:nonzero;fill:rgb(21.176471%,30.588235%,34.901961%);fill-opacity:1;" d="M 57.875 27.789062 L 63.84375 27.789062 L 63.84375 32.644531 L 57.875 32.644531 Z M 57.875 27.789062 "/>
<path style=" stroke:none;fill-rule:nonzero;fill:rgb(21.176471%,30.588235%,34.901961%);fill-opacity:1;" d="M 66.671875 27.867188 L 72.644531 27.867188 L 72.644531 32.722656 L 66.671875 32.722656 Z M 66.671875 27.867188 "/>
<path style="fill-rule:nonzero;fill:rgb(5.490196%,13.72549%,18.039216%);fill-opacity:1;stroke-width:2.799508;stroke-linecap:round;stroke-linejoin:round;stroke:rgb(5.490196%,13.72549%,18.039216%);stroke-opacity:1;stroke-miterlimit:4;" d="M 55.800157 43.582762 L 86.019167 43.582762 L 86.019167 56.021611 L 55.800157 56.021611 Z M 55.800157 43.582762 " transform="matrix(1.442206,0,0,1.4386,-37.733121,-37.44036)"/>
<path style="fill-rule:nonzero;fill:rgb(9.803922%,68.235294%,100%);fill-opacity:1;stroke-width:1.673554;stroke-linecap:round;stroke-linejoin:round;stroke:rgb(9.803922%,68.235294%,100%);stroke-opacity:1;stroke-miterlimit:4;" d="M 64.202001 46.493577 L 68.979838 46.493577 L 68.979838 50.585554 L 64.202001 50.585554 Z M 64.202001 46.493577 " transform="matrix(1.442206,0,0,1.4386,-37.733121,-37.44036)"/>
<path style="fill-rule:nonzero;fill:rgb(9.803922%,68.235294%,100%);fill-opacity:1;stroke-width:1.26465;stroke-linecap:round;stroke-linejoin:round;stroke:rgb(9.803922%,68.235294%,100%);stroke-opacity:1;stroke-miterlimit:4;" d="M 52.986215 39.328792 L 52.986215 38.429814 L 28.932736 38.429814 L 28.932736 44.805759 L 44.16962 44.805759 C 42.180235 48.888932 38.197696 51.279912 33.367408 51.279912 C 26.144582 51.279912 20.617256 45.852048 20.617256 38.830199 C 20.617256 31.910335 25.696217 26.331383 32.968024 26.331383 C 37.248217 26.331383 40.786158 28.023577 43.076966 31.211549 L 51.091024 31.211549 C 48.702254 24.590085 41.132793 19.759023 33.118735 19.759023 C 22.361736 19.759023 13.748601 28.174666 13.748601 38.731991 C 13.748601 49.485733 22.459698 57.852272 33.763025 57.852272 C 44.617986 57.852272 52.986215 49.334644 52.986215 39.328792 " transform="matrix(1.036752,0,0,1.03416,29.941419,26.796469)"/>
<path style="fill-rule:nonzero;fill:rgb(9.803922%,68.235294%,100%);fill-opacity:1;stroke-width:1.673554;stroke-linecap:round;stroke-linejoin:round;stroke:rgb(9.803922%,68.235294%,100%);stroke-opacity:1;stroke-miterlimit:4;" d="M 72.842195 46.436556 L 77.617324 46.436556 L 77.617324 50.531248 L 72.842195 50.531248 Z M 72.842195 46.436556 " transform="matrix(1.442206,0,0,1.4386,-37.733121,-37.44036)"/>
</g>
</svg>
