<?xml version="1.0" encoding="UTF-8"?>
<svg xmlns="http://www.w3.org/2000/svg" xmlns:xlink="http://www.w3.org/1999/xlink" width="1024pt" height="216pt" viewBox="0 0 1024 216" version="1.1">
<g id="surface1">
<path style=" stroke:none;fill-rule:nonzero;fill:rgb(5.490196%,13.72549%,18.039216%);fill-opacity:1;" d="M 291.636719 124.375 L 291.636719 45.75 L 268.664062 45.75 L 268.664062 124.375 C 268.664062 143.863281 261.285156 149.910156 249.886719 149.910156 C 238.148438 149.910156 230.9375 143.695312 230.9375 124.375 L 230.9375 45.75 L 207.96875 45.75 L 207.96875 124.375 C 207.96875 155.957031 225.40625 172.085938 249.71875 172.085938 C 274.199219 172.085938 291.636719 156.125 291.636719 124.375 "/>
<path style=" stroke:none;fill-rule:nonzero;fill:rgb(5.490196%,13.72549%,18.039216%);fill-opacity:1;" d="M 386.644531 132.269531 C 386.644531 115.46875 379.769531 104.550781 354.617188 95.140625 C 342.878906 90.773438 342.546875 90.605469 340.867188 89.597656 C 336.339844 86.742188 333.992188 82.878906 333.992188 78.34375 C 333.992188 70.949219 339.191406 65.742188 346.738281 65.742188 C 354.449219 65.742188 359.144531 70.445312 359.816406 78.847656 L 383.625 78.847656 C 382.453125 57.007812 366.859375 43.566406 346.90625 43.566406 C 326.953125 43.566406 310.855469 59.191406 310.855469 78.847656 C 310.855469 94.46875 320.078125 106.398438 336.675781 112.613281 C 353.109375 118.828125 354.449219 119.332031 358.140625 122.191406 C 361.828125 125.046875 363.839844 129.75 363.839844 134.789062 C 363.839844 143.695312 356.964844 149.910156 347.074219 149.910156 C 336.84375 149.910156 331.3125 144.871094 330.304688 134.453125 L 306.328125 134.453125 C 308.339844 157.972656 325.273438 172.085938 347.074219 172.085938 C 369.371094 172.085938 386.644531 154.78125 386.644531 132.269531 "/>
<path style=" stroke:none;fill-rule:nonzero;fill:rgb(5.490196%,13.72549%,18.039216%);fill-opacity:1;" d="M 482.976562 132.941406 C 482.976562 118.15625 477.609375 108.75 461.847656 102.199219 C 471.742188 96.988281 475.597656 90.4375 475.597656 78.847656 C 475.597656 67.253906 470.402344 57.511719 461.515625 51.796875 C 454.136719 47.09375 446.421875 45.75 427.980469 45.75 L 402.492188 45.75 L 402.492188 169.902344 L 435.523438 169.902344 C 467.382812 169.902344 482.976562 155.621094 482.976562 132.941406 M 459.835938 132.4375 C 459.835938 143.191406 452.960938 147.894531 436.867188 147.894531 L 425.464844 147.894531 L 425.464844 116.140625 L 436.363281 116.140625 C 452.292969 116.140625 459.835938 121.351562 459.835938 132.4375 M 452.628906 80.863281 C 452.628906 89.765625 446.757812 93.628906 432.84375 93.628906 L 425.464844 93.628906 L 425.464844 68.261719 L 434.855469 68.261719 C 446.757812 68.261719 452.628906 72.292969 452.628906 80.863281 "/>
<path style=" stroke:none;fill-rule:nonzero;fill:rgb(5.490196%,13.72549%,18.039216%);fill-opacity:1;" d="M 625.511719 109.589844 L 625.511719 106.566406 L 544.523438 106.566406 L 544.523438 128.070312 L 595.832031 128.070312 C 589.125 141.847656 575.710938 149.910156 559.449219 149.910156 C 535.136719 149.910156 516.523438 131.597656 516.523438 107.910156 C 516.523438 84.558594 533.625 65.742188 558.105469 65.742188 C 572.527344 65.742188 584.429688 71.453125 592.144531 82.207031 L 619.140625 82.207031 C 611.089844 59.863281 585.605469 43.566406 558.609375 43.566406 C 522.390625 43.566406 493.386719 71.957031 493.386719 107.574219 C 493.386719 143.863281 522.726562 172.085938 560.789062 172.085938 C 597.34375 172.085938 625.511719 143.359375 625.511719 109.589844 "/>
<path style=" stroke:none;fill-rule:nonzero;fill:rgb(5.490196%,13.72549%,18.039216%);fill-opacity:1;" d="M 720.890625 169.902344 L 720.890625 76.828125 L 698.589844 76.828125 L 698.589844 120.679688 C 698.589844 133.109375 697.582031 138.820312 695.070312 143.023438 C 691.714844 148.398438 685.679688 151.589844 678.132812 151.589844 C 667.402344 151.589844 660.527344 147.054688 660.527344 122.359375 L 660.527344 76.828125 L 638.226562 76.828125 L 638.226562 126.726562 C 638.226562 159.484375 651.976562 172.085938 673.605469 172.085938 C 684.839844 172.085938 691.882812 169.230469 700.265625 160.996094 L 700.265625 169.902344 L 720.890625 169.902344 "/>
<path style=" stroke:none;fill-rule:nonzero;fill:rgb(5.490196%,13.72549%,18.039216%);fill-opacity:1;" d="M 832.828125 169.902344 L 832.828125 76.828125 L 812.375 76.828125 L 812.375 89.261719 C 804.660156 79.015625 795.4375 74.644531 782.023438 74.644531 C 754.527344 74.644531 734.742188 95.308594 734.742188 123.703125 C 734.742188 151.757812 754.359375 172.085938 781.523438 172.085938 C 794.601562 172.085938 803.488281 167.886719 812.375 157.804688 L 812.375 169.902344 L 832.828125 169.902344 M 811.703125 124.039062 C 811.703125 139.492188 801.644531 151.589844 784.707031 151.589844 C 768.445312 151.589844 757.210938 140.5 757.210938 124.207031 C 757.210938 107.238281 768.445312 95.140625 784.371094 95.140625 C 800.300781 95.140625 811.703125 107.070312 811.703125 124.039062 "/>
<path style=" stroke:none;fill-rule:nonzero;fill:rgb(5.490196%,13.72549%,18.039216%);fill-opacity:1;" d="M 891.710938 96.148438 L 891.710938 74.644531 L 890.03125 74.644531 C 880.476562 74.644531 875.78125 77.332031 869.910156 85.902344 L 869.910156 76.828125 L 849.457031 76.828125 L 849.457031 169.902344 L 871.757812 169.902344 L 871.757812 118.15625 C 871.757812 103.710938 878.296875 96.484375 891.710938 96.148438 "/>
<path style=" stroke:none;fill-rule:nonzero;fill:rgb(5.490196%,13.72549%,18.039216%);fill-opacity:1;" d="M 994.273438 169.902344 L 994.273438 45.75 L 971.972656 45.75 L 971.972656 85.0625 C 965.433594 77.835938 954.703125 73.46875 942.964844 73.46875 C 916.976562 73.46875 896.519531 95.308594 896.519531 123.199219 C 896.519531 150.75 916.808594 172.085938 943.132812 172.085938 C 955.707031 172.085938 964.929688 167.886719 973.816406 157.804688 L 973.816406 169.902344 L 994.273438 169.902344 M 973.648438 122.863281 C 973.648438 138.988281 961.742188 151.589844 946.652344 151.589844 C 931.058594 151.589844 918.988281 138.652344 918.988281 122.191406 C 918.988281 106.398438 930.890625 93.964844 946.152344 93.964844 C 961.742188 93.964844 973.648438 106.566406 973.648438 122.863281 "/>
<path style="fill-rule:nonzero;fill:rgb(5.490196%,13.72549%,18.039216%);fill-opacity:1;stroke-width:8.127036;stroke-linecap:butt;stroke-linejoin:round;stroke:rgb(9.803922%,68.235294%,100%);stroke-opacity:1;stroke-miterlimit:4;" d="M 43.217663 52.157268 C 43.300188 72.296971 49.873651 91.817356 71.65876 99.100278 C 92.315493 89.774083 99.090508 72.463284 98.576311 52.226961 " transform="matrix(2.461365,0,0,2.466172,-64.39786,-64.183474)"/>
<path style="fill-rule:nonzero;fill:rgb(9.803922%,68.235294%,100%);fill-opacity:1;stroke-width:5.478605;stroke-linecap:round;stroke-linejoin:round;stroke:rgb(9.803922%,68.235294%,100%);stroke-opacity:1;stroke-miterlimit:4;" d="M 42.014697 55.816152 C 39.708748 40.81631 59.792565 41.446716 70.797005 41.704897 C 81.799857 41.964661 101.372651 39.850111 99.931632 55.784473 " transform="matrix(2.461365,0,0,2.466172,-64.39786,-64.183474)"/>
<path style=" stroke:none;fill-rule:nonzero;fill:rgb(21.176471%,30.588235%,34.901961%);fill-opacity:1;" d="M 98.773438 47.636719 L 108.960938 47.636719 L 108.960938 55.964844 L 98.773438 55.964844 Z M 98.773438 47.636719 "/>
<path style=" stroke:none;fill-rule:nonzero;fill:rgb(21.176471%,30.588235%,34.901961%);fill-opacity:1;" d="M 113.789062 47.769531 L 123.976562 47.769531 L 123.976562 56.097656 L 113.789062 56.097656 Z M 113.789062 47.769531 "/>
<path style="fill-rule:nonzero;fill:rgb(5.490196%,13.72549%,18.039216%);fill-opacity:1;stroke-width:2.799508;stroke-linecap:round;stroke-linejoin:round;stroke:rgb(5.490196%,13.72549%,18.039216%);stroke-opacity:1;stroke-miterlimit:4;" d="M 55.799607 43.583441 L 86.01976 43.583441 L 86.01976 56.022063 L 55.799607 56.022063 Z M 55.799607 43.583441 " transform="matrix(2.461365,0,0,2.466172,-64.39786,-64.183474)"/>
<path style="fill-rule:nonzero;fill:rgb(9.803922%,68.235294%,100%);fill-opacity:1;stroke-width:1.673554;stroke-linecap:round;stroke-linejoin:round;stroke:rgb(9.803922%,68.235294%,100%);stroke-opacity:1;stroke-miterlimit:4;" d="M 64.202911 46.491541 L 68.978273 46.491541 L 68.978273 50.586007 L 64.202911 50.586007 Z M 64.202911 46.491541 " transform="matrix(2.461365,0,0,2.466172,-64.39786,-64.183474)"/>
<path style="fill-rule:nonzero;fill:rgb(9.803922%,68.235294%,100%);fill-opacity:1;stroke-width:1.26465;stroke-linecap:round;stroke-linejoin:round;stroke:rgb(9.803922%,68.235294%,100%);stroke-opacity:1;stroke-miterlimit:4;" d="M 52.985214 39.328477 L 52.985214 38.431703 L 28.934738 38.431703 L 28.934738 44.806074 L 44.172152 44.806074 C 42.178616 48.888932 38.19596 51.277393 33.365554 51.277393 C 26.146437 51.277393 20.618404 45.850475 20.618404 38.830514 C 20.618404 31.909705 25.698278 26.332957 32.968171 26.332957 C 37.248864 26.332957 40.785569 28.025151 43.074935 31.211235 L 51.093232 31.211235 C 48.702313 24.590085 41.134383 19.760282 33.116086 19.760282 C 22.362472 19.760282 13.748101 28.17498 13.748101 38.731362 C 13.748101 49.486047 22.461817 57.850068 33.765144 57.850068 C 44.620311 57.850068 52.985214 49.336218 52.985214 39.328477 " transform="matrix(1.769391,0,0,1.772846,51.100021,45.936804)"/>
<path style="fill-rule:nonzero;fill:rgb(9.803922%,68.235294%,100%);fill-opacity:1;stroke-width:1.673554;stroke-linecap:round;stroke-linejoin:round;stroke:rgb(9.803922%,68.235294%,100%);stroke-opacity:1;stroke-miterlimit:4;" d="M 72.841094 46.436103 L 77.618043 46.436103 L 77.618043 50.530569 L 72.841094 50.530569 Z M 72.841094 46.436103 " transform="matrix(2.461365,0,0,2.466172,-64.39786,-64.183474)"/>
</g>
</svg>
