<?xml version="1.0" encoding="UTF-8"?>
<svg xmlns="http://www.w3.org/2000/svg" xmlns:xlink="http://www.w3.org/1999/xlink" width="700pt" height="147pt" viewBox="0 0 700 147" version="1.1">
<g id="surface1">
<path style=" stroke:none;fill-rule:nonzero;fill:rgb(5.490196%,13.72549%,18.039216%);fill-opacity:1;" d="M 199.359375 84.644531 L 199.359375 31.136719 L 183.65625 31.136719 L 183.65625 84.644531 C 183.65625 97.90625 178.613281 102.023438 170.820312 102.023438 C 162.796875 102.023438 157.867188 97.792969 157.867188 84.644531 L 157.867188 31.136719 L 142.164062 31.136719 L 142.164062 84.644531 C 142.164062 106.136719 154.085938 117.113281 170.707031 117.113281 C 187.441406 117.113281 199.359375 106.253906 199.359375 84.644531 "/>
<path style=" stroke:none;fill-rule:nonzero;fill:rgb(5.490196%,13.72549%,18.039216%);fill-opacity:1;" d="M 264.308594 90.015625 C 264.308594 78.582031 259.605469 71.152344 242.414062 64.75 C 234.390625 61.777344 234.160156 61.664062 233.015625 60.976562 C 229.921875 59.03125 228.316406 56.402344 228.316406 53.316406 C 228.316406 48.285156 231.871094 44.742188 237.027344 44.742188 C 242.300781 44.742188 245.507812 47.941406 245.96875 53.660156 L 262.242188 53.660156 C 261.441406 38.796875 250.78125 29.648438 237.140625 29.648438 C 223.503906 29.648438 212.5 40.28125 212.5 53.660156 C 212.5 64.292969 218.800781 72.410156 230.148438 76.640625 C 241.382812 80.871094 242.300781 81.214844 244.820312 83.15625 C 247.34375 85.101562 248.71875 88.300781 248.71875 91.730469 C 248.71875 97.792969 244.019531 102.023438 237.257812 102.023438 C 230.265625 102.023438 226.480469 98.59375 225.792969 91.503906 L 209.402344 91.503906 C 210.777344 107.511719 222.355469 117.113281 237.257812 117.113281 C 252.5 117.113281 264.308594 105.335938 264.308594 90.015625 "/>
<path style=" stroke:none;fill-rule:nonzero;fill:rgb(5.490196%,13.72549%,18.039216%);fill-opacity:1;" d="M 330.160156 90.472656 C 330.160156 80.414062 326.492188 74.011719 315.71875 69.550781 C 322.480469 66.007812 325.117188 61.546875 325.117188 53.660156 C 325.117188 45.769531 321.5625 39.136719 315.488281 35.25 C 310.445312 32.050781 305.171875 31.136719 292.5625 31.136719 L 275.140625 31.136719 L 275.140625 115.628906 L 297.722656 115.628906 C 319.5 115.628906 330.160156 105.910156 330.160156 90.472656 M 314.34375 90.132812 C 314.34375 97.449219 309.640625 100.648438 298.640625 100.648438 L 290.84375 100.648438 L 290.84375 79.039062 L 298.296875 79.039062 C 309.183594 79.039062 314.34375 82.585938 314.34375 90.132812 M 309.414062 55.03125 C 309.414062 61.089844 305.402344 63.71875 295.886719 63.71875 L 290.84375 63.71875 L 290.84375 46.457031 L 297.261719 46.457031 C 305.402344 46.457031 309.414062 49.199219 309.414062 55.03125 "/>
<path style=" stroke:none;fill-rule:nonzero;fill:rgb(5.490196%,13.72549%,18.039216%);fill-opacity:1;" d="M 427.59375 74.582031 L 427.59375 72.523438 L 372.234375 72.523438 L 372.234375 87.160156 L 407.308594 87.160156 C 402.722656 96.535156 393.554688 102.023438 382.433594 102.023438 C 365.816406 102.023438 353.09375 89.558594 353.09375 73.4375 C 353.09375 57.546875 364.785156 44.742188 381.519531 44.742188 C 391.375 44.742188 399.511719 48.628906 404.785156 55.945312 L 423.238281 55.945312 C 417.738281 40.738281 400.316406 29.648438 381.863281 29.648438 C 357.105469 29.648438 337.273438 48.972656 337.273438 73.210938 C 337.273438 97.90625 357.332031 117.113281 383.351562 117.113281 C 408.339844 117.113281 427.59375 97.5625 427.59375 74.582031 "/>
<path style=" stroke:none;fill-rule:nonzero;fill:rgb(5.490196%,13.72549%,18.039216%);fill-opacity:1;" d="M 492.796875 115.628906 L 492.796875 52.285156 L 477.550781 52.285156 L 477.550781 82.128906 C 477.550781 90.589844 476.863281 94.476562 475.144531 97.335938 C 472.851562 100.992188 468.726562 103.164062 463.566406 103.164062 C 456.230469 103.164062 451.53125 100.078125 451.53125 83.269531 L 451.53125 52.285156 L 436.289062 52.285156 L 436.289062 86.242188 C 436.289062 108.539062 445.6875 117.113281 460.472656 117.113281 C 468.152344 117.113281 472.96875 115.171875 478.699219 109.566406 L 478.699219 115.628906 L 492.796875 115.628906 "/>
<path style=" stroke:none;fill-rule:nonzero;fill:rgb(5.490196%,13.72549%,18.039216%);fill-opacity:1;" d="M 569.316406 115.628906 L 569.316406 52.285156 L 555.332031 52.285156 L 555.332031 60.746094 C 550.0625 53.773438 543.757812 50.800781 534.585938 50.800781 C 515.789062 50.800781 502.265625 64.863281 502.265625 84.1875 C 502.265625 103.28125 515.675781 117.113281 534.242188 117.113281 C 543.183594 117.113281 549.257812 114.253906 555.332031 107.394531 L 555.332031 115.628906 L 569.316406 115.628906 M 554.875 84.414062 C 554.875 94.933594 548 103.164062 536.421875 103.164062 C 525.304688 103.164062 517.625 95.621094 517.625 84.527344 C 517.625 72.980469 525.304688 64.75 536.191406 64.75 C 547.082031 64.75 554.875 72.867188 554.875 84.414062 "/>
<path style=" stroke:none;fill-rule:nonzero;fill:rgb(5.490196%,13.72549%,18.039216%);fill-opacity:1;" d="M 609.566406 65.433594 L 609.566406 50.800781 L 608.421875 50.800781 C 601.886719 50.800781 598.679688 52.628906 594.667969 58.460938 L 594.667969 52.285156 L 580.683594 52.285156 L 580.683594 115.628906 L 595.925781 115.628906 L 595.925781 80.414062 C 595.925781 70.582031 600.398438 65.664062 609.566406 65.433594 "/>
<path style=" stroke:none;fill-rule:nonzero;fill:rgb(5.490196%,13.72549%,18.039216%);fill-opacity:1;" d="M 679.679688 115.628906 L 679.679688 31.136719 L 664.433594 31.136719 L 664.433594 57.890625 C 659.964844 52.972656 652.628906 50 644.605469 50 C 626.839844 50 612.855469 64.863281 612.855469 83.84375 C 612.855469 102.59375 626.722656 117.113281 644.71875 117.113281 C 653.316406 117.113281 659.621094 114.253906 665.695312 107.394531 L 665.695312 115.628906 L 679.679688 115.628906 M 665.582031 83.613281 C 665.582031 94.589844 657.441406 103.164062 647.125 103.164062 C 636.464844 103.164062 628.214844 94.363281 628.214844 83.15625 C 628.214844 72.410156 636.351562 63.949219 646.78125 63.949219 C 657.441406 63.949219 665.582031 72.523438 665.582031 83.613281 "/>
<path style="fill-rule:nonzero;fill:rgb(5.490196%,13.72549%,18.039216%);fill-opacity:1;stroke-width:8.127036;stroke-linecap:butt;stroke-linejoin:round;stroke:rgb(9.803922%,68.235294%,100%);stroke-opacity:1;stroke-miterlimit:4;" d="M 43.217899 52.15772 C 43.299155 72.296809 49.873905 91.816806 71.657409 99.099276 C 92.317261 89.773339 99.091669 72.462055 98.576275 52.227543 " transform="matrix(1.682573,0,0,1.678367,-44.021975,-43.68042)"/>
<path style="fill-rule:nonzero;fill:rgb(9.803922%,68.235294%,100%);fill-opacity:1;stroke-width:5.478605;stroke-linecap:round;stroke-linejoin:round;stroke:rgb(9.803922%,68.235294%,100%);stroke-opacity:1;stroke-miterlimit:4;" d="M 42.012992 55.816411 C 39.709972 40.816246 59.79407 41.446974 70.796098 41.705317 C 81.800447 41.963659 101.371473 39.85037 99.932085 55.783827 " transform="matrix(1.682573,0,0,1.678367,-44.021975,-43.68042)"/>
<path style=" stroke:none;fill-rule:nonzero;fill:rgb(21.176471%,30.588235%,34.901961%);fill-opacity:1;" d="M 67.519531 32.417969 L 74.484375 32.417969 L 74.484375 38.085938 L 67.519531 38.085938 Z M 67.519531 32.417969 "/>
<path style=" stroke:none;fill-rule:nonzero;fill:rgb(21.176471%,30.588235%,34.901961%);fill-opacity:1;" d="M 77.785156 32.511719 L 84.75 32.511719 L 84.75 38.179688 L 77.785156 38.179688 Z M 77.785156 32.511719 "/>
<path style="fill-rule:nonzero;fill:rgb(5.490196%,13.72549%,18.039216%);fill-opacity:1;stroke-width:2.799508;stroke-linecap:round;stroke-linejoin:round;stroke:rgb(5.490196%,13.72549%,18.039216%);stroke-opacity:1;stroke-miterlimit:4;" d="M 55.800931 43.583538 L 86.021102 43.583538 L 86.021102 56.02355 L 55.800931 56.02355 Z M 55.800931 43.583538 " transform="matrix(1.682573,0,0,1.678367,-44.021975,-43.68042)"/>
<path style="fill-rule:nonzero;fill:rgb(9.803922%,68.235294%,100%);fill-opacity:1;stroke-width:1.673554;stroke-linecap:round;stroke-linejoin:round;stroke:rgb(9.803922%,68.235294%,100%);stroke-opacity:1;stroke-miterlimit:4;" d="M 64.202775 46.492801 L 68.978291 46.492801 L 68.978291 50.586718 L 64.202775 50.586718 Z M 64.202775 46.492801 " transform="matrix(1.682573,0,0,1.678367,-44.021975,-43.68042)"/>
<path style="fill-rule:nonzero;fill:rgb(9.803922%,68.235294%,100%);fill-opacity:1;stroke-width:1.26465;stroke-linecap:round;stroke-linejoin:round;stroke:rgb(9.803922%,68.235294%,100%);stroke-opacity:1;stroke-miterlimit:4;" d="M 52.985139 39.326634 L 52.985139 38.433052 L 28.934889 38.433052 L 28.934889 44.80468 L 44.171773 44.80468 C 42.179159 48.887313 38.197158 51.279912 33.365793 51.279912 C 26.144582 51.279912 20.618871 45.85043 20.618871 38.831278 C 20.618871 31.909256 25.698908 26.330843 32.968562 26.330843 C 37.250908 26.330843 40.784005 28.024116 43.076966 31.213168 L 51.092639 31.213168 C 48.702793 24.589006 41.132793 19.758483 33.11712 19.758483 C 22.362812 19.758483 13.746448 28.173047 13.746448 38.730912 C 13.746448 49.486272 22.459698 57.852272 33.763025 57.852272 C 44.620677 57.852272 52.985139 49.337342 52.985139 39.326634 " transform="matrix(1.209544,0,0,1.206521,34.931655,31.262547)"/>
<path style="fill-rule:nonzero;fill:rgb(9.803922%,68.235294%,100%);fill-opacity:1;stroke-width:1.673554;stroke-linecap:round;stroke-linejoin:round;stroke:rgb(9.803922%,68.235294%,100%);stroke-opacity:1;stroke-miterlimit:4;" d="M 72.841421 46.436944 L 77.616937 46.436944 L 77.616937 50.53086 L 72.841421 50.53086 Z M 72.841421 46.436944 " transform="matrix(1.682573,0,0,1.678367,-44.021975,-43.68042)"/>
</g>
</svg>
