<?xml version="1.0" encoding="UTF-8"?>
<svg xmlns="http://www.w3.org/2000/svg" xmlns:xlink="http://www.w3.org/1999/xlink" width="400pt" height="84pt" viewBox="0 0 400 84" version="1.1">
<g id="surface1">
<path style=" stroke:none;fill-rule:nonzero;fill:rgb(5.490196%,13.72549%,18.039216%);fill-opacity:1;" d="M 113.921875 48.367188 L 113.921875 17.792969 L 104.945312 17.792969 L 104.945312 48.367188 C 104.945312 55.945312 102.066406 58.296875 97.613281 58.296875 C 93.027344 58.296875 90.210938 55.882812 90.210938 48.367188 L 90.210938 17.792969 L 81.238281 17.792969 L 81.238281 48.367188 C 81.238281 60.648438 88.046875 66.921875 97.546875 66.921875 C 107.109375 66.921875 113.921875 60.714844 113.921875 48.367188 "/>
<path style=" stroke:none;fill-rule:nonzero;fill:rgb(5.490196%,13.72549%,18.039216%);fill-opacity:1;" d="M 151.03125 51.4375 C 151.03125 44.90625 148.347656 40.660156 138.523438 37 C 133.9375 35.300781 133.808594 35.234375 133.152344 34.84375 C 131.382812 33.734375 130.464844 32.230469 130.464844 30.464844 C 130.464844 27.589844 132.496094 25.566406 135.445312 25.566406 C 138.457031 25.566406 140.289062 27.394531 140.554688 30.664062 L 149.851562 30.664062 C 149.394531 22.167969 143.304688 16.941406 135.507812 16.941406 C 127.714844 16.941406 121.429688 23.019531 121.429688 30.664062 C 121.429688 36.738281 125.03125 41.375 131.515625 43.792969 C 137.933594 46.210938 138.457031 46.40625 139.898438 47.519531 C 141.339844 48.628906 142.125 50.457031 142.125 52.417969 C 142.125 55.882812 139.4375 58.296875 135.574219 58.296875 C 131.578125 58.296875 129.417969 56.339844 129.027344 52.289062 L 119.660156 52.289062 C 120.445312 61.433594 127.058594 66.921875 135.574219 66.921875 C 144.285156 66.921875 151.03125 60.191406 151.03125 51.4375 "/>
<path style=" stroke:none;fill-rule:nonzero;fill:rgb(5.490196%,13.72549%,18.039216%);fill-opacity:1;" d="M 188.664062 51.699219 C 188.664062 45.949219 186.566406 42.292969 180.410156 39.742188 C 184.273438 37.71875 185.78125 35.171875 185.78125 30.664062 C 185.78125 26.152344 183.75 22.363281 180.277344 20.144531 C 177.398438 18.3125 174.382812 17.792969 167.179688 17.792969 L 157.222656 17.792969 L 157.222656 66.074219 L 170.125 66.074219 C 182.570312 66.074219 188.664062 60.519531 188.664062 51.699219 M 179.625 51.503906 C 179.625 55.683594 176.9375 57.515625 170.652344 57.515625 L 166.195312 57.515625 L 166.195312 45.167969 L 170.453125 45.167969 C 176.675781 45.167969 179.625 47.191406 179.625 51.503906 M 176.808594 31.445312 C 176.808594 34.910156 174.515625 36.410156 169.078125 36.410156 L 166.195312 36.410156 L 166.195312 26.546875 L 169.863281 26.546875 C 174.515625 26.546875 176.808594 28.113281 176.808594 31.445312 "/>
<path style=" stroke:none;fill-rule:nonzero;fill:rgb(5.490196%,13.72549%,18.039216%);fill-opacity:1;" d="M 244.339844 42.617188 L 244.339844 41.441406 L 212.707031 41.441406 L 212.707031 49.804688 L 232.746094 49.804688 C 230.128906 55.164062 224.886719 58.296875 218.535156 58.296875 C 209.039062 58.296875 201.765625 51.175781 201.765625 41.964844 C 201.765625 32.882812 208.449219 25.566406 218.011719 25.566406 C 223.644531 25.566406 228.292969 27.789062 231.304688 31.96875 L 241.851562 31.96875 C 238.707031 23.28125 228.75 16.941406 218.207031 16.941406 C 204.058594 16.941406 192.726562 27.984375 192.726562 41.835938 C 192.726562 55.945312 204.191406 66.921875 219.058594 66.921875 C 233.335938 66.921875 244.339844 55.75 244.339844 42.617188 "/>
<path style=" stroke:none;fill-rule:nonzero;fill:rgb(5.490196%,13.72549%,18.039216%);fill-opacity:1;" d="M 281.597656 66.074219 L 281.597656 29.878906 L 272.886719 29.878906 L 272.886719 46.929688 C 272.886719 51.765625 272.492188 53.984375 271.511719 55.621094 C 270.203125 57.710938 267.84375 58.953125 264.894531 58.953125 C 260.703125 58.953125 258.019531 57.1875 258.019531 47.582031 L 258.019531 29.878906 L 249.308594 29.878906 L 249.308594 49.28125 C 249.308594 62.023438 254.679688 66.921875 263.128906 66.921875 C 267.515625 66.921875 270.265625 65.8125 273.542969 62.609375 L 273.542969 66.074219 L 281.597656 66.074219 "/>
<path style=" stroke:none;fill-rule:nonzero;fill:rgb(5.490196%,13.72549%,18.039216%);fill-opacity:1;" d="M 325.324219 66.074219 L 325.324219 29.878906 L 317.332031 29.878906 L 317.332031 34.714844 C 314.320312 30.726562 310.71875 29.027344 305.480469 29.027344 C 294.738281 29.027344 287.007812 37.066406 287.007812 48.105469 C 287.007812 59.015625 294.671875 66.921875 305.28125 66.921875 C 310.390625 66.921875 313.863281 65.289062 317.332031 61.367188 L 317.332031 66.074219 L 325.324219 66.074219 M 317.070312 48.238281 C 317.070312 54.246094 313.140625 58.953125 306.527344 58.953125 C 300.171875 58.953125 295.785156 54.640625 295.785156 48.300781 C 295.785156 41.703125 300.171875 37 306.394531 37 C 312.617188 37 317.070312 41.636719 317.070312 48.238281 "/>
<path style=" stroke:none;fill-rule:nonzero;fill:rgb(5.490196%,13.72549%,18.039216%);fill-opacity:1;" d="M 348.324219 37.390625 L 348.324219 29.027344 L 347.667969 29.027344 C 343.9375 29.027344 342.101562 30.074219 339.808594 33.40625 L 339.808594 29.878906 L 331.820312 29.878906 L 331.820312 66.074219 L 340.53125 66.074219 L 340.53125 45.949219 C 340.53125 40.332031 343.085938 37.523438 348.324219 37.390625 "/>
<path style=" stroke:none;fill-rule:nonzero;fill:rgb(5.490196%,13.72549%,18.039216%);fill-opacity:1;" d="M 388.386719 66.074219 L 388.386719 17.792969 L 379.675781 17.792969 L 379.675781 33.078125 C 377.121094 30.269531 372.929688 28.570312 368.34375 28.570312 C 358.195312 28.570312 350.203125 37.066406 350.203125 47.910156 C 350.203125 58.625 358.128906 66.921875 368.410156 66.921875 C 373.324219 66.921875 376.925781 65.289062 380.398438 61.367188 L 380.398438 66.074219 L 388.386719 66.074219 M 380.332031 47.78125 C 380.332031 54.050781 375.679688 58.953125 369.785156 58.953125 C 363.695312 58.953125 358.980469 53.921875 358.980469 47.519531 C 358.980469 41.375 363.628906 36.542969 369.589844 36.542969 C 375.679688 36.542969 380.332031 41.441406 380.332031 47.78125 "/>
<path style="fill-rule:nonzero;fill:rgb(5.490196%,13.72549%,18.039216%);fill-opacity:1;stroke-width:8.127036;stroke-linecap:butt;stroke-linejoin:round;stroke:rgb(9.803922%,68.235294%,100%);stroke-opacity:1;stroke-miterlimit:4;" d="M 43.21906 52.15772 C 43.300315 72.298555 49.873905 91.816224 71.658569 99.098694 C 92.317842 89.775667 99.090508 72.461473 98.574534 52.226961 " transform="matrix(0.961471,0,0,0.959067,-25.155414,-24.96024)"/>
<path style="fill-rule:nonzero;fill:rgb(9.803922%,68.235294%,100%);fill-opacity:1;stroke-width:5.478605;stroke-linecap:round;stroke-linejoin:round;stroke:rgb(9.803922%,68.235294%,100%);stroke-opacity:1;stroke-miterlimit:4;" d="M 42.012412 55.815247 C 39.708812 40.8145 59.791168 41.44581 70.797258 41.70648 C 81.799286 41.963078 101.373794 39.849206 99.931505 55.782663 " transform="matrix(0.961471,0,0,0.959067,-25.155414,-24.96024)"/>
<path style=" stroke:none;fill-rule:nonzero;fill:rgb(21.176471%,30.588235%,34.901961%);fill-opacity:1;" d="M 38.582031 18.523438 L 42.5625 18.523438 L 42.5625 21.765625 L 38.582031 21.765625 Z M 38.582031 18.523438 "/>
<path style=" stroke:none;fill-rule:nonzero;fill:rgb(21.176471%,30.588235%,34.901961%);fill-opacity:1;" d="M 44.449219 18.578125 L 48.429688 18.578125 L 48.429688 21.816406 L 44.449219 21.816406 Z M 44.449219 18.578125 "/>
<path style="fill-rule:nonzero;fill:rgb(5.490196%,13.72549%,18.039216%);fill-opacity:1;stroke-width:2.799508;stroke-linecap:round;stroke-linejoin:round;stroke:rgb(5.490196%,13.72549%,18.039216%);stroke-opacity:1;stroke-miterlimit:4;" d="M 55.801511 43.584119 L 86.020522 43.584119 L 86.020522 56.022968 L 55.801511 56.022968 Z M 55.801511 43.584119 " transform="matrix(0.961471,0,0,0.959067,-25.155414,-24.96024)"/>
<path style="fill-rule:nonzero;fill:rgb(9.803922%,68.235294%,100%);fill-opacity:1;stroke-width:1.673554;stroke-linecap:round;stroke-linejoin:round;stroke:rgb(9.803922%,68.235294%,100%);stroke-opacity:1;stroke-miterlimit:4;" d="M 64.203355 46.49222 L 68.97713 46.49222 L 68.97713 50.585554 L 64.203355 50.585554 Z M 64.203355 46.49222 " transform="matrix(0.961471,0,0,0.959067,-25.155414,-24.96024)"/>
<path style="fill-rule:nonzero;fill:rgb(9.803922%,68.235294%,100%);fill-opacity:1;stroke-width:1.26465;stroke-linecap:round;stroke-linejoin:round;stroke:rgb(9.803922%,68.235294%,100%);stroke-opacity:1;stroke-miterlimit:4;" d="M 52.984331 39.330681 L 52.984331 38.429814 L 28.936504 38.429814 L 28.936504 44.80387 L 44.173388 44.80387 C 42.178351 48.888932 38.193929 51.279912 33.367408 51.279912 C 26.144582 51.279912 20.617256 45.852048 20.617256 38.832088 C 20.617256 31.908446 25.698101 26.333272 32.96614 26.333272 C 37.250101 26.333272 40.78239 28.027354 43.076966 31.211549 L 51.091024 31.211549 C 48.700371 24.588197 41.132793 19.760911 33.118735 19.760911 C 22.36362 19.760911 13.744833 28.174666 13.744833 38.730103 C 13.744833 49.483844 22.459698 57.852272 33.763025 57.852272 C 44.61987 57.852272 52.984331 49.336533 52.984331 39.330681 " transform="matrix(0.691168,0,0,0.68944,19.960946,17.864313)"/>
<path style="fill-rule:nonzero;fill:rgb(9.803922%,68.235294%,100%);fill-opacity:1;stroke-width:1.673554;stroke-linecap:round;stroke-linejoin:round;stroke:rgb(9.803922%,68.235294%,100%);stroke-opacity:1;stroke-miterlimit:4;" d="M 72.84084 46.435198 L 77.618678 46.435198 L 77.618678 50.532605 L 72.84084 50.532605 Z M 72.84084 46.435198 " transform="matrix(0.961471,0,0,0.959067,-25.155414,-24.96024)"/>
</g>
</svg>
